<svg xmlns="http://www.w3.org/2000/svg" xmlns:xlink="http://www.w3.org/1999/xlink" width="500" zoomAndPan="magnify" viewBox="0 0 375 374.999991" height="500" preserveAspectRatio="xMidYMid meet" version="1.0"><defs><g/></defs><rect x="-37.5" width="450" fill="#ffffff" y="-37.499999" height="449.999989" fill-opacity="1"/><rect x="-37.5" width="450" fill="#ffffff" y="-37.499999" height="449.999989" fill-opacity="1"/><g fill="#5a322a" fill-opacity="1"><g transform="translate(10.751916, 227.014381)"><g><path d="M 33.828125 -18.609375 C 30.804688 -12.941406 26.804688 -9.175781 21.828125 -7.3125 C 18.878906 -6.21875 15.78125 -5.882812 12.53125 -6.3125 C 9.28125 -6.75 6.234375 -7.921875 3.390625 -9.828125 C -1.390625 -13.035156 -5.003906 -17.914062 -7.453125 -24.46875 C -9.253906 -29.28125 -10.09375 -33.878906 -9.96875 -38.265625 C -9.84375 -42.660156 -8.800781 -46.515625 -6.84375 -49.828125 C -5.75 -51.691406 -4.394531 -53.316406 -2.78125 -54.703125 C -1.175781 -56.097656 0.5625 -57.144531 2.4375 -57.84375 C 3.125 -58.101562 3.804688 -58.300781 4.484375 -58.4375 C 5.160156 -58.570312 6.0625 -58.71875 7.1875 -58.875 L 7.34375 -60.6875 L 18.953125 -59.8125 L 18.890625 -43.046875 C 16.972656 -44.285156 15.265625 -45.0625 13.765625 -45.375 C 12.273438 -45.695312 10.742188 -45.5625 9.171875 -44.96875 C 4.304688 -43.15625 3.375 -38.238281 6.375 -30.21875 C 7.800781 -26.382812 9.5 -23.628906 11.46875 -21.953125 C 13.445312 -20.273438 15.492188 -19.832031 17.609375 -20.625 C 20.648438 -21.769531 22.664062 -24.992188 23.65625 -30.296875 Z M 33.828125 -18.609375 "/></g></g></g><g fill="#5a322a" fill-opacity="1"><g transform="translate(45.534469, 213.794977)"><g><path d="M -6.734375 -37.921875 L -9.78125 -37.09375 L -10.5 -51.609375 L 3.15625 -55.359375 L 8.171875 -37.125 L 16.609375 -39.453125 L 11.59375 -57.6875 L 25.28125 -61.4375 L 39.203125 -10.765625 L 25.515625 -7.015625 L 20.296875 -26.015625 L 11.859375 -23.6875 L 17.078125 -4.6875 L 3.421875 -0.9375 Z M -6.734375 -37.921875 "/></g></g></g><g fill="#5a322a" fill-opacity="1"><g transform="translate(86.208675, 202.442349)"><g><path d="M 14.109375 -56.546875 C 17.835938 -57.179688 21.472656 -56.773438 25.015625 -55.328125 C 28.566406 -53.890625 31.628906 -51.554688 34.203125 -48.328125 C 35.691406 -46.554688 36.957031 -44.398438 38 -41.859375 C 39.050781 -39.316406 39.832031 -36.578125 40.34375 -33.640625 C 41.007812 -29.753906 41.125 -26.132812 40.6875 -22.78125 C 40.257812 -19.4375 39.28125 -16.429688 37.75 -13.765625 C 36.113281 -10.878906 34.039062 -8.523438 31.53125 -6.703125 C 29.019531 -4.890625 26.234375 -3.722656 23.171875 -3.203125 C 18.421875 -2.378906 13.9375 -3.253906 9.71875 -5.828125 C 2.96875 -9.773438 -1.257812 -16.691406 -2.96875 -26.578125 C -4.25 -34.085938 -3.363281 -40.554688 -0.3125 -45.984375 C 1.332031 -48.816406 3.40625 -51.15625 5.90625 -53 C 8.414062 -54.851562 11.148438 -56.035156 14.109375 -56.546875 Z M 16.546875 -42.34375 C 14.421875 -41.976562 12.941406 -40.570312 12.109375 -38.125 C 11.273438 -35.6875 11.191406 -32.53125 11.859375 -28.65625 C 12.566406 -24.5625 13.71875 -21.492188 15.3125 -19.453125 C 16.914062 -17.421875 18.804688 -16.59375 20.984375 -16.96875 C 23.148438 -17.332031 24.632812 -18.742188 25.4375 -21.203125 C 26.25 -23.660156 26.316406 -26.859375 25.640625 -30.796875 C 24.941406 -34.828125 23.789062 -37.847656 22.1875 -39.859375 C 20.59375 -41.878906 18.710938 -42.707031 16.546875 -42.34375 Z M 16.546875 -42.34375 "/></g></g></g><g fill="#5a322a" fill-opacity="1"><g transform="translate(130.584505, 194.900889)"><g><path d="M 37.65625 -8.546875 C 33.175781 -3.929688 28.289062 -1.421875 23 -1.015625 C 19.851562 -0.765625 16.78125 -1.296875 13.78125 -2.609375 C 10.78125 -3.929688 8.179688 -5.898438 5.984375 -8.515625 C 2.265625 -12.921875 0.132812 -18.609375 -0.40625 -25.578125 C -0.8125 -30.710938 -0.351562 -35.367188 0.96875 -39.546875 C 2.300781 -43.734375 4.367188 -47.144531 7.171875 -49.78125 C 8.734375 -51.28125 10.476562 -52.472656 12.40625 -53.359375 C 14.34375 -54.242188 16.3125 -54.765625 18.3125 -54.921875 C 19.039062 -54.984375 19.75 -54.988281 20.4375 -54.9375 C 21.132812 -54.882812 22.046875 -54.769531 23.171875 -54.59375 L 23.8125 -56.296875 L 34.71875 -52.25 L 30.046875 -36.15625 C 28.535156 -37.882812 27.109375 -39.101562 25.765625 -39.8125 C 24.421875 -40.53125 22.910156 -40.820312 21.234375 -40.6875 C 16.054688 -40.28125 13.800781 -35.8125 14.46875 -27.28125 C 14.789062 -23.195312 15.664062 -20.078125 17.09375 -17.921875 C 18.519531 -15.765625 20.359375 -14.773438 22.609375 -14.953125 C 25.847656 -15.210938 28.679688 -17.753906 31.109375 -22.578125 Z M 37.65625 -8.546875 "/></g></g></g><g fill="#5a322a" fill-opacity="1"><g transform="translate(167.601706, 191.732058)"><g><path d="M 24.25 -52.984375 C 28.03125 -52.929688 31.53125 -51.867188 34.75 -49.796875 C 37.976562 -47.734375 40.5625 -44.878906 42.5 -41.234375 C 43.632812 -39.222656 44.484375 -36.867188 45.046875 -34.171875 C 45.609375 -31.484375 45.867188 -28.644531 45.828125 -25.65625 C 45.773438 -21.71875 45.226562 -18.140625 44.1875 -14.921875 C 43.144531 -11.710938 41.632812 -8.941406 39.65625 -6.609375 C 37.507812 -4.066406 35.035156 -2.128906 32.234375 -0.796875 C 29.429688 0.523438 26.476562 1.160156 23.375 1.109375 C 18.550781 1.046875 14.300781 -0.632812 10.625 -3.9375 C 4.707031 -9.070312 1.820312 -16.65625 1.96875 -26.6875 C 2.070312 -34.300781 4.128906 -40.492188 8.140625 -45.265625 C 10.273438 -47.753906 12.742188 -49.675781 15.546875 -51.03125 C 18.347656 -52.382812 21.25 -53.035156 24.25 -52.984375 Z M 24.046875 -38.578125 C 21.890625 -38.609375 20.175781 -37.503906 18.90625 -35.265625 C 17.644531 -33.023438 16.984375 -29.9375 16.921875 -26 C 16.859375 -21.851562 17.425781 -18.625 18.625 -16.3125 C 19.832031 -14.007812 21.539062 -12.84375 23.75 -12.8125 C 25.945312 -12.78125 27.664062 -13.898438 28.90625 -16.171875 C 30.144531 -18.441406 30.796875 -21.570312 30.859375 -25.5625 C 30.921875 -29.65625 30.347656 -32.835938 29.140625 -35.109375 C 27.941406 -37.390625 26.242188 -38.546875 24.046875 -38.578125 Z M 24.046875 -38.578125 "/></g></g></g><g fill="#5a322a" fill-opacity="1"><g transform="translate(212.478531, 192.31079)"><g><path d="M 7.859375 -37.703125 L 4.71875 -38.0625 L 9.46875 -51.796875 L 23.546875 -50.203125 L 31.015625 -29.296875 L 33.265625 -49.09375 L 47.34375 -47.5 L 41.40625 4.703125 L 29.046875 3.296875 L 20.15625 -20.390625 L 17.609375 2 L 3.53125 0.40625 Z M 7.859375 -37.703125 "/></g></g></g><g fill="#5a322a" fill-opacity="1"><g transform="translate(255.458057, 197.175532)"><g><path d="M 11.125 -36.859375 L 8.046875 -37.515625 L 14.03125 -50.734375 L 27.90625 -47.828125 L 22.109375 -20.234375 C 21.578125 -17.710938 21.210938 -15.785156 21.015625 -14.453125 C 20.828125 -13.128906 20.773438 -12.164062 20.859375 -11.5625 C 20.972656 -10.78125 21.253906 -10.113281 21.703125 -9.5625 C 22.148438 -9.019531 22.726562 -8.671875 23.4375 -8.515625 C 24.164062 -8.367188 24.847656 -8.46875 25.484375 -8.8125 C 26.117188 -9.164062 26.617188 -9.703125 26.984375 -10.421875 C 27.253906 -10.910156 27.535156 -11.738281 27.828125 -12.90625 C 28.117188 -14.082031 28.550781 -16.035156 29.125 -18.765625 L 34.921875 -46.359375 L 48.8125 -43.4375 L 42.59375 -13.84375 C 42.226562 -12.082031 41.898438 -10.585938 41.609375 -9.359375 C 41.328125 -8.128906 41.050781 -7.070312 40.78125 -6.1875 C 40.519531 -5.3125 40.253906 -4.554688 39.984375 -3.921875 C 39.710938 -3.285156 39.410156 -2.675781 39.078125 -2.09375 C 37.273438 1.125 34.757812 3.34375 31.53125 4.5625 C 28.300781 5.789062 24.546875 5.957031 20.265625 5.0625 C 17.023438 4.375 14.265625 3.132812 11.984375 1.34375 C 9.703125 -0.445312 8.0625 -2.65625 7.0625 -5.28125 C 6.769531 -6.144531 6.554688 -7.035156 6.421875 -7.953125 C 6.285156 -8.867188 6.234375 -9.921875 6.265625 -11.109375 C 6.304688 -12.304688 6.453125 -13.695312 6.703125 -15.28125 C 6.960938 -16.863281 7.3125 -18.710938 7.75 -20.828125 Z M 11.125 -36.859375 "/></g></g></g><g fill="#5a322a" fill-opacity="1"><g transform="translate(295.058899, 205.645469)"><g><path d="M 18.21875 -34.640625 L 11.109375 -36.71875 L 18.140625 -49.4375 L 33.71875 -44.875 L 34.671875 -46.46875 L 46.453125 -43.015625 L 38.546875 -28.671875 L 31.828125 -30.640625 L 21.015625 6.171875 L 7.40625 2.171875 Z M 18.21875 -34.640625 "/></g></g></g><g fill="#5a322a" fill-opacity="1"><g transform="translate(323.497074, 213.812145)"><g><path d="M 11.296875 -14.4375 C 12.640625 -12.46875 14.1875 -10.75 15.9375 -9.28125 C 17.6875 -7.8125 19.421875 -6.753906 21.140625 -6.109375 C 22.117188 -5.742188 23.019531 -5.6875 23.84375 -5.9375 C 24.675781 -6.1875 25.25 -6.726562 25.5625 -7.5625 C 25.726562 -8 25.804688 -8.429688 25.796875 -8.859375 C 25.785156 -9.296875 25.628906 -9.789062 25.328125 -10.34375 C 25.035156 -10.894531 24.59375 -11.535156 24 -12.265625 C 23.40625 -13.003906 22.609375 -13.898438 21.609375 -14.953125 C 19.703125 -16.890625 18.269531 -18.488281 17.3125 -19.75 C 16.351562 -21.007812 15.570312 -22.265625 14.96875 -23.515625 C 14.113281 -25.117188 13.675781 -26.898438 13.65625 -28.859375 C 13.644531 -30.828125 14.007812 -32.796875 14.75 -34.765625 C 15.539062 -36.878906 16.613281 -38.691406 17.96875 -40.203125 C 19.320312 -41.722656 20.867188 -42.898438 22.609375 -43.734375 C 24.347656 -44.566406 26.191406 -45.035156 28.140625 -45.140625 C 30.085938 -45.242188 32.070312 -44.914062 34.09375 -44.15625 C 35.125 -43.769531 36.066406 -43.34375 36.921875 -42.875 C 37.785156 -42.414062 38.894531 -41.738281 40.25 -40.84375 L 41.5625 -42.796875 L 51.21875 -36.21875 L 42.84375 -23.96875 C 41.894531 -25.613281 40.695312 -27.054688 39.25 -28.296875 C 37.800781 -29.535156 36.296875 -30.453125 34.734375 -31.046875 C 33.492188 -31.515625 32.40625 -31.65625 31.46875 -31.46875 C 30.53125 -31.289062 29.914062 -30.8125 29.625 -30.03125 C 29.476562 -29.632812 29.425781 -29.234375 29.46875 -28.828125 C 29.507812 -28.421875 29.703125 -27.925781 30.046875 -27.34375 C 30.390625 -26.769531 30.882812 -26.078125 31.53125 -25.265625 C 32.1875 -24.453125 33.035156 -23.488281 34.078125 -22.375 C 35.066406 -21.28125 35.898438 -20.335938 36.578125 -19.546875 C 37.253906 -18.753906 37.820312 -18.035156 38.28125 -17.390625 C 38.738281 -16.742188 39.117188 -16.140625 39.421875 -15.578125 C 39.722656 -15.015625 39.972656 -14.414062 40.171875 -13.78125 C 41.359375 -10.363281 41.234375 -6.738281 39.796875 -2.90625 C 38.890625 -0.488281 37.648438 1.570312 36.078125 3.28125 C 34.503906 5 32.738281 6.300781 30.78125 7.1875 C 28.832031 8.070312 26.707031 8.546875 24.40625 8.609375 C 22.101562 8.679688 19.75 8.265625 17.34375 7.359375 C 14.6875 6.359375 12.242188 5.015625 10.015625 3.328125 C 7.785156 1.648438 5.613281 -0.472656 3.5 -3.046875 Z M 11.296875 -14.4375 "/></g></g></g></svg>